:FULLY-SPECIFIED
:FORCE-ALL-JOINTS-BE-3DOF
:DEGREES
102
root -2.83539 16.509 -36.1835 3.2237 0.143825 -2.20436
lfemur -21.2435 5.84318 -9.1964
ltibia 44.4949 0 0
lfoot -21.6803 0.00148534 0
ltoes -8.22461 0 0
rfemur -21.7222 -5.82458 13.7227
rtibia 47.1522 0 0
rfoot -25.5522 1.40615 0
rtoes -6.94905 0 0
lowerback 7.49866 1.99097 -1.74427
upperback -3.64755 2.57152 1.19601
thorax -8.19662 1.38762 1.86841
lowerneck -2.71269 -3.84787 -6.56123
upperneck 6.15137 -5.19972 5.92024
head 2.84919 -2.57323 2.93626
lclavicle 1.56973e-14 2.23137e-14 0
lhumerus -26.8442 -4.22676 89.7596
lradius 25.0103 0 0
lwrist -30.1013 0 0
lhand -28.6553 30.3389 0
lfingers 7.12502 0 0
lthumb -2.06276 60.1219 0
rclavicle 3.36329e-14 1.28069e-14 0
rhumerus -32.5171 2.78786 -80.2659
rradius 30.6941 0 0
rwrist 2.67377 0 0
rhand -19.9879 -27.8745 0
rfingers 7.12502 0 0
rthumb 5.95654 -57.2051 0
103
root -2.83395 16.5074 -36.1796 3.2345 0.0984108 -2.27888
lfemur -21.269 5.84426 -9.19598
ltibia 44.5159 0 0
lfoot -21.7152 0.0148506 0
ltoes -8.27095 0 0
rfemur -21.7479 -5.83949 13.7412
rtibia 47.1716 0 0
rfoot -25.5713 1.40249 0
rtoes -6.95025 0 0
lowerback 7.46285 2.00172 -1.7131
upperback -3.65393 2.59173 1.22056
thorax -8.18338 1.39663 1.87488
lowerneck -2.78693 -3.84815 -6.54758
upperneck 6.2223 -5.198 5.90326
head 2.88589 -2.57151 2.92713
lclavicle 1.66495e-14 2.38642e-14 0
lhumerus -26.8636 -4.21288 89.7658
lradius 25.0202 0 0
lwrist -30.0891 0 0
lhand -28.6434 30.3216 0
lfingers 7.12502 0 0
lthumb -2.04321 60.1336 0
rclavicle 3.3837e-14 1.23309e-14 0
rhumerus -32.5235 2.77208 -80.2553
rradius 30.7058 0 0
rwrist 2.67824 0 0
rhand -19.9876 -27.8724 0
rfingers 7.12502 0 0
rthumb 5.94179 -57.1718 0
104
root -2.83199 16.5088 -36.1758 3.28806 0.12855 -2.29513
lfemur -21.2778 5.84464 -9.19584
ltibia 44.5291 0 0
lfoot -21.7484 0.0275334 0
ltoes -8.31217 0 0
rfemur -21.7772 -5.85654 13.7623
rtibia 47.1894 0 0
rfoot -25.5892 1.39906 0
rtoes -6.95371 0 0
lowerback 7.37791 1.98235 -1.72172
upperback -3.69357 2.56616 1.22081
thorax -8.17576 1.3851 1.88581
lowerneck -2.69112 -3.83772 -6.52947
upperneck 6.19823 -5.18968 5.90533
head 2.85845 -2.5683 2.92596
lclavicle 1.7517e-14 2.52769e-14 0
lhumerus -26.881 -4.20037 89.7715
lradius 25.0302 0 0
lwrist -30.0771 0 0
lhand -28.6317 30.3045 0
lfingers 7.12502 0 0
lthumb -2.02349 60.1453 0
rclavicle 3.40215e-14 1.19004e-14 0
rhumerus -32.5291 2.75864 -80.2463
rradius 30.7162 0 0
rwrist 2.68104 0 0
rhand -19.9867 -27.8665 0
rfingers 7.12502 0 0
rthumb 5.92758 -57.1398 0
105
root -2.82947 16.5078 -36.1734 3.33607 0.149049 -2.30513
lfemur -21.2828 5.84459 -9.19395
ltibia 44.5337 0 0
lfoot -21.7793 0.039363 0
ltoes -8.34753 0 0
rfemur -21.8095 -5.8753 13.7856
rtibia 47.2052 0 0
rfoot -25.6057 1.39591 0
rtoes -6.95922 0 0
lowerback 7.32754 1.97635 -1.73243
upperback -3.7182 2.55747 1.21668
thorax -8.17283 1.38162 1.88991
lowerneck -2.70842 -3.84124 -6.48948
upperneck 6.22184 -5.19492 5.88401
head 2.86762 -2.57029 2.91068
lclavicle 1.82868e-14 2.65304e-14 0
lhumerus -26.8962 -4.18953 89.7763
lradius 25.0401 0 0
lwrist -30.0656 0 0
lhand -28.6203 30.2879 0
lfingers 7.12502 0 0
lthumb -2.00394 60.157 0
rclavicle 3.41822e-14 1.15255e-14 0
rhumerus -32.5335 2.74779 -80.239
rradius 30.725 0 0
rwrist 2.68202 0 0
rhand -19.9852 -27.8569 0
rfingers 7.12502 0 0
rthumb 5.91409 -57.1094 0
